<svg width="16" height="17" viewBox="0 0 16 17" fill="none" xmlns="http://www.w3.org/2000/svg">
<g id="simple-line-icons:calender" clip-path="url(#clip0_50_123)">
<path id="Vector" d="M15 1.59221L10.9965 1.59223V0.533447C10.9965 0.239932 10.7727 0.00219727 10.4965 0.00219727C10.2203 0.00219727 9.9965 0.239932 9.9965 0.533447V1.59196H5.9965V0.533447C5.9965 0.239932 5.77275 0.00219727 5.4965 0.00219727C5.22025 0.00219727 4.9965 0.239932 4.9965 0.533447V1.59196H1C0.44775 1.59196 0 2.0677 0 2.65446V15.9357C0 16.5225 0.44775 16.9982 1 16.9982H15C15.5522 16.9982 16 16.5225 16 15.9357V2.65446C16 2.06795 15.5522 1.59221 15 1.59221ZM15 15.9357H1V2.65446H4.9965V3.1897C4.9965 3.4832 5.22025 3.72095 5.4965 3.72095C5.77275 3.72095 5.9965 3.4832 5.9965 3.1897V2.65473H9.9965V3.18996C9.9965 3.48348 10.2203 3.72121 10.4965 3.72121C10.7727 3.72121 10.9965 3.48348 10.9965 3.18996V2.65473H15V15.9357ZM11.5 8.49846H12.5C12.776 8.49846 13 8.26046 13 7.96721V6.90471C13 6.61146 12.776 6.37346 12.5 6.37346H11.5C11.224 6.37346 11 6.61146 11 6.90471V7.96721C11 8.26046 11.224 8.49846 11.5 8.49846ZM11.5 12.7482H12.5C12.776 12.7482 13 12.5105 13 12.2169V11.1544C13 10.8612 12.776 10.6232 12.5 10.6232H11.5C11.224 10.6232 11 10.8612 11 11.1544V12.2169C11 12.5107 11.224 12.7482 11.5 12.7482ZM8.5 10.6232H7.5C7.224 10.6232 7 10.8612 7 11.1544V12.2169C7 12.5105 7.224 12.7482 7.5 12.7482H8.5C8.776 12.7482 9 12.5105 9 12.2169V11.1544C9 10.8615 8.776 10.6232 8.5 10.6232ZM8.5 6.37346H7.5C7.224 6.37346 7 6.61146 7 6.90471V7.96721C7 8.26046 7.224 8.49846 7.5 8.49846H8.5C8.776 8.49846 9 8.26046 9 7.96721V6.90471C9 6.6112 8.776 6.37346 8.5 6.37346ZM4.5 6.37346H3.5C3.224 6.37346 3 6.61146 3 6.90471V7.96721C3 8.26046 3.224 8.49846 3.5 8.49846H4.5C4.776 8.49846 5 8.26046 5 7.96721V6.90471C5 6.6112 4.776 6.37346 4.5 6.37346ZM4.5 10.6232H3.5C3.224 10.6232 3 10.8612 3 11.1544V12.2169C3 12.5105 3.224 12.7482 3.5 12.7482H4.5C4.776 12.7482 5 12.5105 5 12.2169V11.1544C5 10.8615 4.776 10.6232 4.5 10.6232Z" fill="#7A7A7A"/>
</g>
<defs>
<clipPath id="clip0_50_123">
<rect width="16" height="17" fill="white"/>
</clipPath>
</defs>
</svg>
