<svg width="58" height="58" viewBox="0 0 58 58" fill="none" xmlns="http://www.w3.org/2000/svg">
<circle cx="29" cy="29" r="29" fill="#FF8D3A"/>
<path d="M28.9999 26.3333C26.3333 26.3333 24.9999 27.6667 24.9999 30.3333C24.9999 32.3333 26.9919 35.0467 28.9999 37.6667C30.3333 39 30.9999 39.6667 32.3333 40.3333C33.6666 41 35.6666 41.6667 38.3333 39.6667C40.9999 37.6667 40.3333 35 38.9999 31.6667C37.6666 28.3333 35.8893 24.3333 32.3333 19C31.2213 17.6667 30.3333 17 28.9959 17C27.6626 17 26.8319 17.6 25.6666 19C22.1106 24.3333 20.3333 28.3333 18.9999 31.6667C17.6666 35 16.9999 37.6667 19.6666 39.6667C22.3333 41.6667 24.3333 41 25.6666 40.3333C26.9999 39.6667 27.6666 39 28.9999 37.6667C31.0079 35.0467 32.9999 32.3333 32.9999 30.3333C32.9999 27.6667 31.6666 26.3333 28.9999 26.3333Z" stroke="white" stroke-width="2" stroke-linecap="round" stroke-linejoin="round"/>
</svg>
